<svg width="179" height="25" viewBox="0 0 179 25" fill="none" xmlns="http://www.w3.org/2000/svg">
<path d="M0.5 24V0.727272H6.81818V9.81818H15.1818V0.727272H21.5V24H15.1818V14.9091H6.81818V24H0.5ZM31.6745 24.3182C29.8109 24.3182 28.2048 23.9621 26.8564 23.25C25.5155 22.5303 24.4814 21.5 23.7541 20.1591C23.0344 18.8106 22.6745 17.197 22.6745 15.3182C22.6745 13.5152 23.0382 11.9394 23.7655 10.5909C24.4927 9.24242 25.5192 8.19318 26.845 7.44318C28.1708 6.69318 29.7352 6.31818 31.5382 6.31818C32.8564 6.31818 34.0495 6.52273 35.1177 6.93182C36.1859 7.34091 37.0988 7.93561 37.8564 8.71591C38.6139 9.48864 39.1973 10.428 39.6064 11.5341C40.0155 12.6402 40.22 13.8864 40.22 15.2727V16.7273H24.6291V13.2727H34.4473C34.4397 12.7727 34.3109 12.3333 34.0609 11.9545C33.8185 11.5682 33.4889 11.2689 33.0723 11.0568C32.6632 10.8371 32.1973 10.7273 31.6745 10.7273C31.167 10.7273 30.7011 10.8371 30.2768 11.0568C29.8526 11.2689 29.5117 11.5644 29.2541 11.9432C29.0041 12.322 28.8715 12.7652 28.8564 13.2727V17C28.8564 17.5606 28.9738 18.0606 29.2086 18.5C29.4435 18.9394 29.7806 19.2841 30.22 19.5341C30.6594 19.7841 31.1897 19.9091 31.8109 19.9091C32.2427 19.9091 32.6367 19.8485 32.9927 19.7273C33.3564 19.6061 33.667 19.4318 33.9245 19.2045C34.1821 18.9697 34.3715 18.6894 34.4927 18.3636H40.22C40.023 19.5758 39.5571 20.6288 38.8223 21.5227C38.0874 22.4091 37.1139 23.0985 35.9018 23.5909C34.6973 24.0758 33.2882 24.3182 31.6745 24.3182ZM46.3633 24.2727C45.2497 24.2727 44.2648 24.0909 43.4087 23.7273C42.5603 23.3561 41.8936 22.7955 41.4087 22.0455C40.9239 21.2955 40.6815 20.3409 40.6815 19.1818C40.6815 18.2273 40.8444 17.4129 41.1701 16.7386C41.4959 16.0568 41.9504 15.5 42.5337 15.0682C43.1171 14.6364 43.7951 14.3068 44.5678 14.0795C45.3481 13.8523 46.1891 13.7045 47.0906 13.6364C48.0678 13.5606 48.8519 13.4697 49.4428 13.3636C50.0413 13.25 50.4731 13.0947 50.7383 12.8977C51.0034 12.6932 51.136 12.4242 51.136 12.0909V12.0455C51.136 11.5909 50.9618 11.2424 50.6133 11C50.2648 10.7576 49.8178 10.6364 49.2724 10.6364C48.6739 10.6364 48.1853 10.7689 47.8065 11.0341C47.4353 11.2917 47.2118 11.6894 47.136 12.2273H41.3633C41.4391 11.1667 41.7762 10.1894 42.3747 9.29545C42.9807 8.39394 43.8633 7.67424 45.0224 7.13636C46.1815 6.59091 47.6284 6.31818 49.3633 6.31818C50.6133 6.31818 51.7345 6.46591 52.7269 6.76136C53.7194 7.04924 54.5641 7.45455 55.261 7.97727C55.958 8.49242 56.4883 9.09848 56.8519 9.79545C57.2231 10.4848 57.4087 11.2348 57.4087 12.0455V24H51.5451V21.5455H51.4087C51.0603 22.197 50.636 22.7235 50.136 23.125C49.6436 23.5265 49.0792 23.8182 48.4428 24C47.8141 24.1818 47.1209 24.2727 46.3633 24.2727ZM48.4087 20.3182C48.886 20.3182 49.333 20.2197 49.7497 20.0227C50.1739 19.8258 50.5186 19.5417 50.7837 19.1705C51.0489 18.7992 51.1815 18.3485 51.1815 17.8182V16.3636C51.0148 16.4318 50.8368 16.4962 50.6474 16.5568C50.4656 16.6174 50.2686 16.6742 50.0565 16.7273C49.8519 16.7803 49.6322 16.8295 49.3974 16.875C49.1701 16.9205 48.9315 16.9621 48.6815 17C48.1966 17.0758 47.7989 17.2008 47.4883 17.375C47.1853 17.5417 46.958 17.75 46.8065 18C46.6625 18.2424 46.5906 18.5152 46.5906 18.8182C46.5906 19.303 46.761 19.6742 47.1019 19.9318C47.4428 20.1894 47.8784 20.3182 48.4087 20.3182ZM65.3986 0.727272V24H59.1259V0.727272H65.3986ZM77.7237 6.54545V11.0909H66.2237V6.54545H77.7237ZM68.451 2.36364H74.7237V18.3864C74.7237 18.6288 74.7654 18.8333 74.8487 19C74.9321 19.1591 75.0609 19.2803 75.2351 19.3636C75.4094 19.4394 75.6328 19.4773 75.9056 19.4773C76.095 19.4773 76.3147 19.4545 76.5647 19.4091C76.8222 19.3636 77.0116 19.3258 77.1328 19.2955L78.0419 23.7045C77.7616 23.7879 77.3601 23.8902 76.8374 24.0114C76.3222 24.1326 75.7086 24.2121 74.9965 24.25C73.5571 24.3258 72.3487 24.178 71.3715 23.8068C70.3942 23.428 69.6594 22.8333 69.1669 22.0227C68.6745 21.2121 68.4359 20.197 68.451 18.9773V2.36364ZM85.6511 14.1818V24H79.3784V0.727272H85.4239V9.86364H85.6057C85.9996 8.75 86.6549 7.88258 87.5716 7.26136C88.4883 6.63258 89.5905 6.31818 90.8784 6.31818C92.1133 6.31818 93.1852 6.59848 94.0943 7.15909C95.011 7.7197 95.7193 8.49242 96.2193 9.47727C96.7269 10.4621 96.9769 11.5909 96.9693 12.8636V24H90.6966V14.1818C90.7042 13.3182 90.4883 12.6402 90.0489 12.1477C89.617 11.6553 88.9996 11.4091 88.1966 11.4091C87.689 11.4091 87.242 11.5227 86.8557 11.75C86.4769 11.9697 86.1814 12.2879 85.9693 12.7045C85.7648 13.1136 85.6587 13.6061 85.6511 14.1818ZM98.4677 4.26136V0.727272H117.036V4.26136H109.843V24H105.661V4.26136H98.4677ZM117.341 24V6.54545H121.33V9.45455H121.512C121.83 8.44697 122.375 7.67045 123.148 7.125C123.928 6.57197 124.818 6.29545 125.818 6.29545C126.046 6.29545 126.299 6.30682 126.58 6.32954C126.868 6.3447 127.106 6.37121 127.296 6.40909V10.1932C127.121 10.1326 126.845 10.0795 126.466 10.0341C126.095 9.98106 125.735 9.95455 125.387 9.95455C124.637 9.95455 123.962 10.1174 123.364 10.4432C122.773 10.7614 122.307 11.2045 121.966 11.7727C121.625 12.3409 121.455 12.9962 121.455 13.7386V24H117.341ZM133.459 24.3523C132.353 24.3523 131.357 24.1553 130.47 23.7614C129.591 23.3598 128.894 22.7689 128.379 21.9886C127.872 21.2083 127.618 20.2462 127.618 19.1023C127.618 18.1174 127.8 17.303 128.163 16.6591C128.527 16.0152 129.023 15.5 129.652 15.1136C130.281 14.7273 130.989 14.4356 131.777 14.2386C132.573 14.0341 133.394 13.8864 134.243 13.7955C135.266 13.6894 136.095 13.5947 136.732 13.5114C137.368 13.4205 137.83 13.2841 138.118 13.1023C138.413 12.9129 138.561 12.6212 138.561 12.2273V12.1591C138.561 11.303 138.307 10.6402 137.8 10.1705C137.292 9.70076 136.561 9.46591 135.607 9.46591C134.599 9.46591 133.8 9.68561 133.209 10.125C132.626 10.5644 132.232 11.0833 132.027 11.6818L128.186 11.1364C128.489 10.0758 128.989 9.18939 129.686 8.47727C130.383 7.75757 131.235 7.2197 132.243 6.86364C133.251 6.5 134.364 6.31818 135.584 6.31818C136.425 6.31818 137.262 6.41667 138.095 6.61364C138.929 6.81061 139.69 7.13636 140.379 7.59091C141.069 8.03788 141.622 8.64773 142.038 9.42045C142.463 10.1932 142.675 11.1591 142.675 12.3182V24H138.72V21.6023H138.584C138.334 22.0871 137.982 22.5417 137.527 22.9659C137.08 23.3826 136.516 23.7197 135.834 23.9773C135.16 24.2273 134.368 24.3523 133.459 24.3523ZM134.527 21.3295C135.353 21.3295 136.069 21.1667 136.675 20.8409C137.281 20.5076 137.747 20.0682 138.073 19.5227C138.406 18.9773 138.573 18.3826 138.573 17.7386V15.6818C138.444 15.7879 138.224 15.8864 137.913 15.9773C137.61 16.0682 137.269 16.1477 136.891 16.2159C136.512 16.2841 136.137 16.3447 135.766 16.3977C135.394 16.4508 135.073 16.4962 134.8 16.5341C134.186 16.6174 133.637 16.7538 133.152 16.9432C132.667 17.1326 132.285 17.3977 132.004 17.7386C131.724 18.072 131.584 18.5038 131.584 19.0341C131.584 19.7917 131.86 20.3636 132.413 20.75C132.966 21.1364 133.671 21.3295 134.527 21.3295ZM153.145 24.3409C151.402 24.3409 149.906 23.9583 148.656 23.1932C147.414 22.428 146.455 21.3712 145.781 20.0227C145.114 18.6667 144.781 17.1061 144.781 15.3409C144.781 13.5682 145.122 12.0038 145.804 10.6477C146.486 9.28409 147.448 8.22348 148.69 7.46591C149.94 6.70076 151.417 6.31818 153.122 6.31818C154.539 6.31818 155.792 6.57955 156.883 7.10227C157.982 7.61742 158.857 8.34848 159.508 9.29545C160.16 10.2348 160.531 11.3333 160.622 12.5909H156.69C156.531 11.75 156.152 11.0492 155.554 10.4886C154.963 9.92045 154.171 9.63636 153.179 9.63636C152.338 9.63636 151.599 9.86364 150.963 10.3182C150.327 10.7652 149.83 11.4091 149.474 12.25C149.126 13.0909 148.952 14.0985 148.952 15.2727C148.952 16.4621 149.126 17.4848 149.474 18.3409C149.823 19.1894 150.311 19.8447 150.94 20.3068C151.577 20.7614 152.323 20.9886 153.179 20.9886C153.785 20.9886 154.327 20.875 154.804 20.6477C155.289 20.4129 155.694 20.0758 156.02 19.6364C156.346 19.197 156.569 18.6629 156.69 18.0341H160.622C160.524 19.2689 160.16 20.3636 159.531 21.3182C158.902 22.2652 158.046 23.0076 156.963 23.5455C155.88 24.0758 154.607 24.3409 153.145 24.3409ZM166.47 18.5227L166.459 13.5568H167.118L173.39 6.54545H178.197L170.481 15.1364H169.629L166.47 18.5227ZM162.72 24V0.727272H166.834V24H162.72ZM173.674 24L167.993 16.0568L170.765 13.1591L178.595 24H173.674Z" fill="url(#paint0_linear_2381_4779)"/>
<defs>
<linearGradient id="paint0_linear_2381_4779" x1="89" y1="-7" x2="89" y2="32" gradientUnits="userSpaceOnUse">
<stop stop-color="#33E4DB"/>
<stop offset="1" stop-color="#00BBD3"/>
</linearGradient>
</defs>
</svg>
